<svg xmlns="http://www.w3.org/2000/svg" width="25" height="24" fill="none"><path fill="#222327" fill-rule="evenodd" d="M13.206 12.57c1.788-.43 2.621 1.778.828 2.235-1.83.466-2.769-1.77-.828-2.235Zm-.87 9.42.035-.029c.215.072.65 1.482 2.197 1.9 2.018.545 4.351-.56 5.568-2.445.348-.54 1.436-2.477.513-2.86-.808-.334-1.128 1.546-1.639 2.311-.548.821-1.5 1.458-2.451 1.682-3.244.763-3.59-2.04-3.561-4.513 1.618-.485 3.368-2.573 3.262-4.338-.132-2.183-3.176-2.856-4.91-2.514-2.287.451-3.58 2.005-2.403 4.317 1.325 2.604 2.764 2.095 2.83 2.852.236 2.723-1.357 5.745-4.723 3.734-.81-.485-1.364-1.198-1.768-2.045-.15-.314-.383-1.22-.515-1.362-.381-.406-1.058-.096-1.036.521.058 1.63 1.846 3.716 3.314 4.322 2.021.835 4.275.635 5.288-1.533Zm3.842-12.422c-.466-1.08-.916-2.156-.194-3.317.666-1.07 1.941-1.107 2.884-.373 1.975 1.534 1.972 5.35-.52 5.184 1.366-.445 1.777-1.884 1.134-3.145l-1.473 1.115.49-1.895c-1.735-.43-2.362.962-2.321 2.43v.001Zm.768-5.44c-4.52.92-2.41 8.995 2.036 8.207 4.503-.799 2.437-9.117-2.036-8.207ZM7.228 8.875 5.808 7.77c-.417.437-.453 1.27-.278 1.827.207.665.472.844.986 1.206-2.51-.207-2.145-3.443-.694-4.936.744-.766 1.943-1.065 2.825-.325.948.793.718 2.13.476 3.16-.396-.659-.297-1.487-1.497-1.739-1.336-.278-.738.265-.398 1.912Zm-.215-5.021c-4.696.777-4.676 8.984.015 8.221 4.68-.76 4.658-8.994-.015-8.221ZM15.52.028c-.674.109-.77.903-.337 1.191.439.292 1.548-.323 2.715 1.413.287.428.408 1.102.996 1.028 1.612-.2-.948-4.023-3.374-3.632ZM7.884.043C6.847.192 5.996.836 5.396 1.67c-1.465 2.038.003 2.335.418 1.72.567-.842.866-1.77 2.048-2.03.49-.108 1.381.148 1.338-.72-.037-.715-.798-.672-1.316-.597Z" clip-rule="evenodd"/></svg>