<svg xmlns="http://www.w3.org/2000/svg" width="40" height="40" fill="none"><path fill="#222327" fill-rule="evenodd" d="M1.756 28.812C.531 30.636-.252 31.604.074 34.057c.234 1.761 1.181 3.421 2.666 4.396 1.625 1.07 3.714 1.254 5.46.354 1.884-.971 2.4-2.073 3.146-3.947l17.27.003c.763 1.908 1.269 2.984 3.192 3.968 3.509 1.796 7.86-.886 8.116-5.154.064-1.06-.1-2.104-.536-3.072-.507-1.13-.927-1.282-1.506-2.13.79-1.713 1.062-3.135.22-4.934-1.464-3.13-5.52-3.78-7.76-.969-.503.63-.479 1.52-.8 2.266-.309.718-.672 1.261-1.108 1.896 3.456.551 1.202-1.571 3.262-3.58 1.47-1.434 3.516-1.169 4.797.365 1.98 2.371-.265 4.38-.245 5.166.016.645 2.406 1.628 2.35 4.651-.078 4.186-5.068 6.31-7.722 3.004-2.75-3.425 2.829-2.934-10.966-2.934h-6.864c-.741 0-2.66-.314-2.918.558-.323 1.09-.307 1.471-1.073 2.415-2.683 3.304-7.728 1.062-7.691-3.188.008-.924.273-1.873.787-2.64.468-.698 1.575-1.338 1.123-2.064-.583-.939-.993-1.072-1.092-2.384-.25-3.334 3.42-5.084 5.623-2.912 1.921 1.895-.309 4.15 3.368 3.542-.439-.624-.885-1.236-1.127-1.946-.298-.872-.388-1.502-.972-2.235-1.075-1.347-2.832-2.038-4.528-1.656-3.556.802-4.632 4.9-2.79 7.916Z" clip-rule="evenodd"/><path fill="#222327" fill-rule="evenodd" d="M20.438 14.433c1.966-.472 2.882 1.957.91 2.46-2.013.512-3.045-1.948-.91-2.46Zm-.956 10.364.038-.031c.236.078.715 1.63 2.415 2.09 2.22.6 4.786-.616 6.124-2.69.383-.595 1.58-2.725.564-3.146-.888-.368-1.24 1.7-1.801 2.542-.604.904-1.65 1.604-2.697 1.85-3.568.84-3.949-2.243-3.916-4.965 1.779-.534 3.704-2.831 3.587-4.772-.145-2.403-3.493-3.143-5.4-2.767-2.515.496-3.936 2.206-2.643 4.75 1.458 2.865 3.04 2.305 3.112 3.138.26 2.995-1.492 6.322-5.193 4.108-.892-.533-1.5-1.318-1.945-2.25-.165-.346-.421-1.342-.567-1.498-.419-.447-1.163-.106-1.139.573.063 1.793 2.03 4.089 3.644 4.755 2.224.918 4.703.699 5.817-1.686Zm4.224-13.667c-.512-1.189-1.007-2.372-.213-3.65.733-1.176 2.135-1.218 3.172-.41 2.171 1.688 2.169 5.886-.572 5.703 1.502-.488 1.954-2.072 1.247-3.46l-1.62 1.228.54-2.086c-1.91-.474-2.599 1.059-2.554 2.675Zm.845-5.985c-4.972 1.011-2.65 9.897 2.24 9.03 4.951-.88 2.68-10.032-2.24-9.03Zm-10.688 5.222L12.3 9.152c-.459.48-.498 1.396-.306 2.01.228.732.519.928 1.085 1.327-2.761-.228-2.36-3.788-.764-5.431.819-.843 2.137-1.172 3.107-.358 1.043.873.79 2.344.524 3.478-.436-.726-.327-1.637-1.646-1.914-1.47-.306-.813.292-.438 2.103Zm-.237-5.524c-5.165.855-5.143 9.885.017 9.046 5.146-.837 5.123-9.896-.017-9.046Zm9.358-4.21c-.742.12-.847.994-.371 1.311.482.321 1.703-.356 2.986 1.555.316.47.45 1.212 1.095 1.131 1.773-.221-1.042-4.426-3.71-3.996Zm-8.4.017c-1.14.164-2.076.873-2.736 1.79-1.611 2.243.003 2.57.46 1.892.623-.925.952-1.947 2.252-2.233.54-.119 1.519.163 1.471-.792-.04-.787-.876-.74-1.447-.657Z" clip-rule="evenodd"/></svg>